<?xml version="1.0" encoding="iso-8859-1"?>
<!-- Generator: Adobe Illustrator 19.0.0, SVG Export Plug-In . SVG Version: 6.00 Build 0)  -->
<svg version="1.1" id="Layer_1" xmlns="http://www.w3.org/2000/svg" xmlns:xlink="http://www.w3.org/1999/xlink" x="0px" y="0px"
	 viewBox="0 0 512 512" style="enable-background:new 0 0 512 512;" xml:space="preserve">
<g>
	<g>
		<path d="M432.217,231.442c1.983-8.7,2.983-17.625,2.983-26.642c0-65.875-53.592-119.467-119.467-119.467
			c-53.254,0-100.242,35.838-114.812,86.35c-4.35-0.675-8.758-1.017-13.188-1.017c-44.304,0-80.833,33.942-84.946,77.188
			C59.542,251.966,25.6,288.491,25.6,332.8c0,47.05,38.279,85.333,85.333,85.333c4.713,0,8.533-3.815,8.533-8.533
			c0-4.717-3.821-8.533-8.533-8.533c-37.642,0-68.267-30.623-68.267-68.267c0-37.642,30.625-68.267,68.267-68.267
			c4.713,0,8.533-3.815,8.533-8.533c0-37.641,30.625-68.266,68.267-68.266c5.871,0,11.696,0.746,17.317,2.213
			c2.271,0.604,4.658,0.229,6.642-0.992c1.983-1.225,3.379-3.212,3.867-5.492c9.95-46.971,52.083-81.063,100.175-81.063
			c56.463,0,102.4,45.938,102.4,102.4c0,10.788-1.667,21.408-4.954,31.563c-0.825,2.546-0.408,5.329,1.125,7.521
			c1.533,2.192,4.008,3.538,6.679,3.637c41.467,1.508,73.95,35.222,73.95,76.745c0,42.116-34.258,76.569-76.371,76.8
			c-4.713,0.027-8.512,3.813-8.487,8.529c0.025,4.692,3.842,8.427,8.533,8.427c0.017,0,0.029,0,0.046,0
			c51.471,0,93.346-42.335,93.346-93.81C512,277.054,477.729,238.205,432.217,231.442z"/>
	</g>
</g>
<g>
	<g>
		<path d="M216.034,290.577c-4.479-1.492-9.304,0.925-10.796,5.389l-8.533,25.6c-1.492,4.477,0.925,9.31,5.396,10.792
			c0.896,0.3,1.808,0.442,2.7,0.442c3.575,0,6.904-2.256,8.096-5.831l8.533-25.6C222.921,296.891,220.504,292.06,216.034,290.577z"
			/>
	</g>
</g>
<g>
	<g>
		<path d="M190.434,375.91c-4.488-1.5-9.308,0.925-10.796,5.389l-8.533,25.6c-1.492,4.477,0.925,9.311,5.396,10.792
			c0.896,0.3,1.808,0.442,2.7,0.442c3.575,0,6.904-2.256,8.096-5.831l8.533-25.6C197.321,382.224,194.904,377.393,190.434,375.91z"
			/>
	</g>
</g>
<g>
	<g>
		<path d="M164.833,452.71c-4.479-1.51-9.304,0.925-10.796,5.389l-8.533,25.6c-1.492,4.477,0.925,9.311,5.396,10.792
			c0.896,0.3,1.808,0.442,2.7,0.442c3.575,0,6.904-2.256,8.096-5.831l8.533-25.6C171.721,459.024,169.304,454.193,164.833,452.71z"
			/>
	</g>
</g>
<g>
	<g>
		<path d="M301.367,264.977c-4.488-1.5-9.308,0.925-10.796,5.389l-8.533,25.6c-1.492,4.477,0.925,9.311,5.396,10.792
			c0.896,0.3,1.808,0.442,2.7,0.442c3.575,0,6.904-2.256,8.096-5.831l8.533-25.6C308.254,271.291,305.838,266.46,301.367,264.977z"
			/>
	</g>
</g>
<g>
	<g>
		<path d="M275.767,350.31c-4.496-1.51-9.304,0.925-10.796,5.389l-8.533,25.6c-1.492,4.477,0.925,9.31,5.396,10.792
			c0.896,0.3,1.808,0.442,2.7,0.442c3.575,0,6.904-2.256,8.096-5.831l8.533-25.6C282.654,356.624,280.238,351.793,275.767,350.31z"
			/>
	</g>
</g>
<g>
	<g>
		<path d="M250.167,427.11c-4.488-1.5-9.308,0.925-10.796,5.389l-8.533,25.6c-1.492,4.477,0.925,9.31,5.396,10.792
			c0.896,0.3,1.808,0.442,2.7,0.442c3.575,0,6.904-2.256,8.096-5.831l8.533-25.6C257.054,433.424,254.638,428.593,250.167,427.11z"
			/>
	</g>
</g>
<g>
	<g>
		<path d="M361.1,341.777c-4.483-1.492-9.304,0.925-10.796,5.389l-8.533,25.6c-1.492,4.477,0.925,9.31,5.396,10.792
			c0.896,0.3,1.808,0.442,2.7,0.442c3.575,0,6.904-2.256,8.096-5.831l8.533-25.6C367.988,348.091,365.571,343.26,361.1,341.777z"/>
	</g>
</g>
<g>
	<g>
		<path d="M335.5,427.11c-4.492-1.5-9.308,0.925-10.796,5.389l-8.533,25.6c-1.492,4.477,0.925,9.31,5.396,10.792
			c0.896,0.3,1.808,0.442,2.7,0.442c3.575,0,6.904-2.256,8.096-5.831l8.533-25.6C342.388,433.424,339.971,428.593,335.5,427.11z"/>
	</g>
</g>
<g>
	<g>
		<path d="M199.938,118.117c-11.175-29.817-40.083-49.85-71.938-49.85c-42.346,0-76.8,34.454-76.8,76.8
			c0,22.904,10.113,44.442,27.746,59.092c1.596,1.325,3.529,1.971,5.45,1.971c2.45,0,4.879-1.05,6.567-3.079
			c3.012-3.625,2.517-9.004-1.108-12.017c-13.721-11.4-21.588-28.154-21.588-45.967c0-32.937,26.796-59.733,59.733-59.733
			c24.779,0,47.267,15.583,55.954,38.775c1.654,4.413,6.588,6.646,10.987,4.996C199.354,127.45,201.592,122.534,199.938,118.117z"/>
	</g>
</g>
<g>
	<g>
		<path d="M65.767,62.234L57.234,53.7c-3.333-3.333-8.733-3.333-12.067,0c-3.333,3.333-3.333,8.733,0,12.067l8.533,8.533
			c1.667,1.667,3.85,2.5,6.033,2.5c2.183,0,4.367-0.833,6.034-2.5C69.1,70.967,69.1,65.567,65.767,62.234z"/>
	</g>
</g>
<g>
	<g>
		<path d="M137.523,17.067c-4.713,0-8.533,3.821-8.533,8.533v17.067c0,4.713,3.821,8.533,8.533,8.533s8.533-3.821,8.533-8.533V25.6
			C146.056,20.888,142.236,17.067,137.523,17.067z"/>
	</g>
</g>
<g>
	<g>
		<path d="M227.9,62.234c-3.333-3.333-8.733-3.333-12.067,0l-8.533,8.533c-3.333,3.333-3.333,8.733,0,12.067
			c1.667,1.667,3.85,2.5,6.033,2.5c2.183,0,4.367-0.833,6.033-2.5l8.533-8.533C231.234,70.967,231.234,65.567,227.9,62.234z"/>
	</g>
</g>
<g>
	<g>
		<path d="M25.6,127.889H8.533c-4.713,0-8.533,3.821-8.533,8.533c0,4.713,3.821,8.533,8.533,8.533H25.6
			c4.713,0,8.533-3.821,8.533-8.533C34.133,131.71,30.313,127.889,25.6,127.889z"/>
	</g>
</g>
<g>
	<g>
		<path d="M57.234,207.3c-3.333-3.333-8.733-3.333-12.067,0l-8.533,8.533c-3.333,3.333-3.333,8.733,0,12.067
			c1.667,1.667,3.85,2.5,6.033,2.5c2.183,0,4.367-0.833,6.033-2.5l8.533-8.533C60.567,216.034,60.567,210.634,57.234,207.3z"/>
	</g>
</g>
<g>
</g>
<g>
</g>
<g>
</g>
<g>
</g>
<g>
</g>
<g>
</g>
<g>
</g>
<g>
</g>
<g>
</g>
<g>
</g>
<g>
</g>
<g>
</g>
<g>
</g>
<g>
</g>
<g>
</g>
</svg>
